<?xml version="1.0" encoding="UTF-8" standalone="no"?>
<!DOCTYPE svg PUBLIC "-//W3C//DTD SVG 1.1//EN" "http://www.w3.org/Graphics/SVG/1.1/DTD/svg11.dtd">
<svg id="vector" xmlns="http://www.w3.org/2000/svg" width="108" height="108" viewBox="0 0 108 108">
	<path fill="#7A7A7A" fill-rule="nonzero" d="M47.13,69.56C35.4,69.56 25.88,60.6 25.88,49.56C25.88,38.52 35.4,29.56 47.13,29.56C58.86,29.56 68.38,38.52 68.38,49.56C68.38,60.6 58.86,69.56 47.13,69.56z" stroke="#7A7A7A" stroke-linecap="butt" stroke-linejoin="miter" stroke-width="0" id="path_0"/>
	<path fill="#7A7A7A" fill-rule="nonzero" d="M59.67,39.81C71.4,39.81 80.92,48.77 80.92,59.81C80.92,70.85 71.4,79.81 59.67,79.81C47.94,79.81 38.42,70.85 38.42,59.81C38.42,48.77 47.94,39.81 59.67,39.81z" stroke="#7A7A7A" stroke-linecap="butt" stroke-linejoin="miter" stroke-width="0" id="path_1"/>
	<path fill="#000000" fill-rule="nonzero" d="M54.09,33.27C66.76,33.27 77.04,42.95 77.04,54.87C77.04,66.79 66.76,76.47 54.09,76.47C41.42,76.47 31.14,66.79 31.14,54.87C31.14,42.95 41.42,33.27 54.09,33.27z" stroke="#000000" stroke-linecap="butt" stroke-linejoin="miter" stroke-width="1" id="path_2"/>
	<path fill="#00000000" fill-rule="nonzero" d="M54.09,35.39C65.59,35.39 74.92,44.17 74.92,54.99C74.92,65.81 65.59,74.59 54.09,74.59C42.59,74.59 33.26,65.81 33.26,54.99C33.26,44.17 42.59,35.39 54.09,35.39z" stroke="#7A7A7A" stroke-linecap="butt" stroke-linejoin="miter" stroke-width="2" id="path_3"/>
	<path fill="#00000000" fill-rule="nonzero" d="M54.09,52.59C55.5,52.59 56.64,53.67 56.64,54.99C56.64,56.31 55.5,57.39 54.09,57.39C52.68,57.39 51.54,56.31 51.54,54.99C51.54,53.67 52.68,52.59 54.09,52.59z" stroke="#7A7A7A" stroke-linecap="butt" stroke-linejoin="miter" stroke-width="2" id="path_4"/>
	<path fill="#7A7A7A" fill-rule="nonzero" d="M32.72,54.19L51.64,54.19L51.64,55.79L32.72,55.79z" stroke="#7A7A7A" stroke-linecap="butt" stroke-linejoin="miter" stroke-width=".5" id="path_5"/>
	<path fill="#7A7A7A" fill-rule="nonzero" d="M56.83,54.19L75.75,54.19L75.75,55.79L56.83,55.79z" stroke="#7A7A7A" stroke-linecap="butt" stroke-linejoin="miter" stroke-width=".5" id="path_6"/>
	<path fill="#7A7A7A" fill-rule="nonzero" d="M54.94,57.33L54.94,75.13L53.24,75.13L53.24,57.33z" stroke="#7A7A7A" stroke-linecap="butt" stroke-linejoin="miter" stroke-width=".5" id="path_7"/>
	<path fill="#7A7A7A" fill-rule="nonzero" d="M54.94,34.79L54.94,52.59L53.24,52.59L53.24,34.79z" stroke="#7A7A7A" stroke-linecap="butt" stroke-linejoin="miter" stroke-width=".5" id="path_8"/>
	<path fill="#7A7A7A" fill-rule="nonzero" d="M39.35,40.27L52.69,52.51L51.49,53.61L38.15,41.37z" stroke="#7A7A7A" stroke-linecap="butt" stroke-linejoin="miter" stroke-width=".5" id="path_9"/>
	<path fill="#7A7A7A" fill-rule="nonzero" d="M56.19,56.41L69.53,68.65L68.33,69.75L54.99,57.51z" stroke="#7A7A7A" stroke-linecap="butt" stroke-linejoin="miter" stroke-width=".5" id="path_10"/>
	<path fill="#7A7A7A" fill-rule="nonzero" d="M38.15,68.37L51.49,56.13L52.69,57.23L39.35,69.47z" stroke="#7A7A7A" stroke-linecap="butt" stroke-linejoin="miter" stroke-width=".5" id="path_11"/>
	<path fill="#7A7A7A" fill-rule="nonzero" d="M55.37,52.57L68.71,40.33L69.91,41.53L56.57,53.77z" stroke="#7A7A7A" stroke-linecap="butt" stroke-linejoin="miter" stroke-width=".5" id="path_12"/>
	<path fill="#7A7A7A" fill-rule="nonzero" d="M77.43,48.98L89.33,63.38L77.43,63.38z" stroke="#00000000" stroke-linecap="butt" stroke-linejoin="miter" stroke-width="0.16" id="path_13"/>
	<path fill="#7A7A7A" fill-rule="nonzero" d="M30.39,61.58L18.49,47.18L30.39,47.18z" stroke="#00000000" stroke-linecap="butt" stroke-linejoin="miter" stroke-width="0.16" id="path_14"/>
</svg>